<svg version="1.1" xmlns="http://www.w3.org/2000/svg" xmlns:xlink="http://www.w3.org/1999/xlink" width="692.0634765625" height="829"><defs/><g><text fill="#eeeeee" stroke="none" font-family="Arial" font-size="24px" font-style="normal" font-weight="normal" text-decoration="none" x="0" y="0">UNREGISTERED</text><text fill="#eeeeee" stroke="none" font-family="Arial" font-size="24px" font-style="normal" font-weight="normal" text-decoration="none" x="0" y="30">UNREGISTERED</text><text fill="#eeeeee" stroke="none" font-family="Arial" font-size="24px" font-style="normal" font-weight="normal" text-decoration="none" x="0" y="60">UNREGISTERED</text><text fill="#eeeeee" stroke="none" font-family="Arial" font-size="24px" font-style="normal" font-weight="normal" text-decoration="none" x="0" y="90">UNREGISTERED</text><text fill="#eeeeee" stroke="none" font-family="Arial" font-size="24px" font-style="normal" font-weight="normal" text-decoration="none" x="0" y="120">UNREGISTERED</text><text fill="#eeeeee" stroke="none" font-family="Arial" font-size="24px" font-style="normal" font-weight="normal" text-decoration="none" x="0" y="150">UNREGISTERED</text><text fill="#eeeeee" stroke="none" font-family="Arial" font-size="24px" font-style="normal" font-weight="normal" text-decoration="none" x="0" y="180">UNREGISTERED</text><text fill="#eeeeee" stroke="none" font-family="Arial" font-size="24px" font-style="normal" font-weight="normal" text-decoration="none" x="0" y="210">UNREGISTERED</text><text fill="#eeeeee" stroke="none" font-family="Arial" font-size="24px" font-style="normal" font-weight="normal" text-decoration="none" x="0" y="240">UNREGISTERED</text><text fill="#eeeeee" stroke="none" font-family="Arial" font-size="24px" font-style="normal" font-weight="normal" text-decoration="none" x="0" y="270">UNREGISTERED</text><text fill="#eeeeee" stroke="none" font-family="Arial" font-size="24px" font-style="normal" font-weight="normal" text-decoration="none" x="0" y="300">UNREGISTERED</text><text fill="#eeeeee" stroke="none" font-family="Arial" font-size="24px" font-style="normal" font-weight="normal" text-decoration="none" x="0" y="330">UNREGISTERED</text><text fill="#eeeeee" stroke="none" font-family="Arial" font-size="24px" font-style="normal" font-weight="normal" text-decoration="none" x="0" y="360">UNREGISTERED</text><text fill="#eeeeee" stroke="none" font-family="Arial" font-size="24px" font-style="normal" font-weight="normal" text-decoration="none" x="0" y="390">UNREGISTERED</text><text fill="#eeeeee" stroke="none" font-family="Arial" font-size="24px" font-style="normal" font-weight="normal" text-decoration="none" x="0" y="420">UNREGISTERED</text><text fill="#eeeeee" stroke="none" font-family="Arial" font-size="24px" font-style="normal" font-weight="normal" text-decoration="none" x="0" y="450">UNREGISTERED</text><text fill="#eeeeee" stroke="none" font-family="Arial" font-size="24px" font-style="normal" font-weight="normal" text-decoration="none" x="0" y="480">UNREGISTERED</text><text fill="#eeeeee" stroke="none" font-family="Arial" font-size="24px" font-style="normal" font-weight="normal" text-decoration="none" x="0" y="510">UNREGISTERED</text><text fill="#eeeeee" stroke="none" font-family="Arial" font-size="24px" font-style="normal" font-weight="normal" text-decoration="none" x="0" y="540">UNREGISTERED</text><text fill="#eeeeee" stroke="none" font-family="Arial" font-size="24px" font-style="normal" font-weight="normal" text-decoration="none" x="0" y="570">UNREGISTERED</text><text fill="#eeeeee" stroke="none" font-family="Arial" font-size="24px" font-style="normal" font-weight="normal" text-decoration="none" x="0" y="600">UNREGISTERED</text><text fill="#eeeeee" stroke="none" font-family="Arial" font-size="24px" font-style="normal" font-weight="normal" text-decoration="none" x="0" y="630">UNREGISTERED</text><text fill="#eeeeee" stroke="none" font-family="Arial" font-size="24px" font-style="normal" font-weight="normal" text-decoration="none" x="0" y="660">UNREGISTERED</text><text fill="#eeeeee" stroke="none" font-family="Arial" font-size="24px" font-style="normal" font-weight="normal" text-decoration="none" x="0" y="690">UNREGISTERED</text><text fill="#eeeeee" stroke="none" font-family="Arial" font-size="24px" font-style="normal" font-weight="normal" text-decoration="none" x="0" y="720">UNREGISTERED</text><text fill="#eeeeee" stroke="none" font-family="Arial" font-size="24px" font-style="normal" font-weight="normal" text-decoration="none" x="0" y="750">UNREGISTERED</text><text fill="#eeeeee" stroke="none" font-family="Arial" font-size="24px" font-style="normal" font-weight="normal" text-decoration="none" x="0" y="780">UNREGISTERED</text><text fill="#eeeeee" stroke="none" font-family="Arial" font-size="24px" font-style="normal" font-weight="normal" text-decoration="none" x="0" y="810">UNREGISTERED</text><text fill="#eeeeee" stroke="none" font-family="Arial" font-size="24px" font-style="normal" font-weight="normal" text-decoration="none" x="200" y="0">UNREGISTERED</text><text fill="#eeeeee" stroke="none" font-family="Arial" font-size="24px" font-style="normal" font-weight="normal" text-decoration="none" x="200" y="30">UNREGISTERED</text><text fill="#eeeeee" stroke="none" font-family="Arial" font-size="24px" font-style="normal" font-weight="normal" text-decoration="none" x="200" y="60">UNREGISTERED</text><text fill="#eeeeee" stroke="none" font-family="Arial" font-size="24px" font-style="normal" font-weight="normal" text-decoration="none" x="200" y="90">UNREGISTERED</text><text fill="#eeeeee" stroke="none" font-family="Arial" font-size="24px" font-style="normal" font-weight="normal" text-decoration="none" x="200" y="120">UNREGISTERED</text><text fill="#eeeeee" stroke="none" font-family="Arial" font-size="24px" font-style="normal" font-weight="normal" text-decoration="none" x="200" y="150">UNREGISTERED</text><text fill="#eeeeee" stroke="none" font-family="Arial" font-size="24px" font-style="normal" font-weight="normal" text-decoration="none" x="200" y="180">UNREGISTERED</text><text fill="#eeeeee" stroke="none" font-family="Arial" font-size="24px" font-style="normal" font-weight="normal" text-decoration="none" x="200" y="210">UNREGISTERED</text><text fill="#eeeeee" stroke="none" font-family="Arial" font-size="24px" font-style="normal" font-weight="normal" text-decoration="none" x="200" y="240">UNREGISTERED</text><text fill="#eeeeee" stroke="none" font-family="Arial" font-size="24px" font-style="normal" font-weight="normal" text-decoration="none" x="200" y="270">UNREGISTERED</text><text fill="#eeeeee" stroke="none" font-family="Arial" font-size="24px" font-style="normal" font-weight="normal" text-decoration="none" x="200" y="300">UNREGISTERED</text><text fill="#eeeeee" stroke="none" font-family="Arial" font-size="24px" font-style="normal" font-weight="normal" text-decoration="none" x="200" y="330">UNREGISTERED</text><text fill="#eeeeee" stroke="none" font-family="Arial" font-size="24px" font-style="normal" font-weight="normal" text-decoration="none" x="200" y="360">UNREGISTERED</text><text fill="#eeeeee" stroke="none" font-family="Arial" font-size="24px" font-style="normal" font-weight="normal" text-decoration="none" x="200" y="390">UNREGISTERED</text><text fill="#eeeeee" stroke="none" font-family="Arial" font-size="24px" font-style="normal" font-weight="normal" text-decoration="none" x="200" y="420">UNREGISTERED</text><text fill="#eeeeee" stroke="none" font-family="Arial" font-size="24px" font-style="normal" font-weight="normal" text-decoration="none" x="200" y="450">UNREGISTERED</text><text fill="#eeeeee" stroke="none" font-family="Arial" font-size="24px" font-style="normal" font-weight="normal" text-decoration="none" x="200" y="480">UNREGISTERED</text><text fill="#eeeeee" stroke="none" font-family="Arial" font-size="24px" font-style="normal" font-weight="normal" text-decoration="none" x="200" y="510">UNREGISTERED</text><text fill="#eeeeee" stroke="none" font-family="Arial" font-size="24px" font-style="normal" font-weight="normal" text-decoration="none" x="200" y="540">UNREGISTERED</text><text fill="#eeeeee" stroke="none" font-family="Arial" font-size="24px" font-style="normal" font-weight="normal" text-decoration="none" x="200" y="570">UNREGISTERED</text><text fill="#eeeeee" stroke="none" font-family="Arial" font-size="24px" font-style="normal" font-weight="normal" text-decoration="none" x="200" y="600">UNREGISTERED</text><text fill="#eeeeee" stroke="none" font-family="Arial" font-size="24px" font-style="normal" font-weight="normal" text-decoration="none" x="200" y="630">UNREGISTERED</text><text fill="#eeeeee" stroke="none" font-family="Arial" font-size="24px" font-style="normal" font-weight="normal" text-decoration="none" x="200" y="660">UNREGISTERED</text><text fill="#eeeeee" stroke="none" font-family="Arial" font-size="24px" font-style="normal" font-weight="normal" text-decoration="none" x="200" y="690">UNREGISTERED</text><text fill="#eeeeee" stroke="none" font-family="Arial" font-size="24px" font-style="normal" font-weight="normal" text-decoration="none" x="200" y="720">UNREGISTERED</text><text fill="#eeeeee" stroke="none" font-family="Arial" font-size="24px" font-style="normal" font-weight="normal" text-decoration="none" x="200" y="750">UNREGISTERED</text><text fill="#eeeeee" stroke="none" font-family="Arial" font-size="24px" font-style="normal" font-weight="normal" text-decoration="none" x="200" y="780">UNREGISTERED</text><text fill="#eeeeee" stroke="none" font-family="Arial" font-size="24px" font-style="normal" font-weight="normal" text-decoration="none" x="200" y="810">UNREGISTERED</text><text fill="#eeeeee" stroke="none" font-family="Arial" font-size="24px" font-style="normal" font-weight="normal" text-decoration="none" x="400" y="0">UNREGISTERED</text><text fill="#eeeeee" stroke="none" font-family="Arial" font-size="24px" font-style="normal" font-weight="normal" text-decoration="none" x="400" y="30">UNREGISTERED</text><text fill="#eeeeee" stroke="none" font-family="Arial" font-size="24px" font-style="normal" font-weight="normal" text-decoration="none" x="400" y="60">UNREGISTERED</text><text fill="#eeeeee" stroke="none" font-family="Arial" font-size="24px" font-style="normal" font-weight="normal" text-decoration="none" x="400" y="90">UNREGISTERED</text><text fill="#eeeeee" stroke="none" font-family="Arial" font-size="24px" font-style="normal" font-weight="normal" text-decoration="none" x="400" y="120">UNREGISTERED</text><text fill="#eeeeee" stroke="none" font-family="Arial" font-size="24px" font-style="normal" font-weight="normal" text-decoration="none" x="400" y="150">UNREGISTERED</text><text fill="#eeeeee" stroke="none" font-family="Arial" font-size="24px" font-style="normal" font-weight="normal" text-decoration="none" x="400" y="180">UNREGISTERED</text><text fill="#eeeeee" stroke="none" font-family="Arial" font-size="24px" font-style="normal" font-weight="normal" text-decoration="none" x="400" y="210">UNREGISTERED</text><text fill="#eeeeee" stroke="none" font-family="Arial" font-size="24px" font-style="normal" font-weight="normal" text-decoration="none" x="400" y="240">UNREGISTERED</text><text fill="#eeeeee" stroke="none" font-family="Arial" font-size="24px" font-style="normal" font-weight="normal" text-decoration="none" x="400" y="270">UNREGISTERED</text><text fill="#eeeeee" stroke="none" font-family="Arial" font-size="24px" font-style="normal" font-weight="normal" text-decoration="none" x="400" y="300">UNREGISTERED</text><text fill="#eeeeee" stroke="none" font-family="Arial" font-size="24px" font-style="normal" font-weight="normal" text-decoration="none" x="400" y="330">UNREGISTERED</text><text fill="#eeeeee" stroke="none" font-family="Arial" font-size="24px" font-style="normal" font-weight="normal" text-decoration="none" x="400" y="360">UNREGISTERED</text><text fill="#eeeeee" stroke="none" font-family="Arial" font-size="24px" font-style="normal" font-weight="normal" text-decoration="none" x="400" y="390">UNREGISTERED</text><text fill="#eeeeee" stroke="none" font-family="Arial" font-size="24px" font-style="normal" font-weight="normal" text-decoration="none" x="400" y="420">UNREGISTERED</text><text fill="#eeeeee" stroke="none" font-family="Arial" font-size="24px" font-style="normal" font-weight="normal" text-decoration="none" x="400" y="450">UNREGISTERED</text><text fill="#eeeeee" stroke="none" font-family="Arial" font-size="24px" font-style="normal" font-weight="normal" text-decoration="none" x="400" y="480">UNREGISTERED</text><text fill="#eeeeee" stroke="none" font-family="Arial" font-size="24px" font-style="normal" font-weight="normal" text-decoration="none" x="400" y="510">UNREGISTERED</text><text fill="#eeeeee" stroke="none" font-family="Arial" font-size="24px" font-style="normal" font-weight="normal" text-decoration="none" x="400" y="540">UNREGISTERED</text><text fill="#eeeeee" stroke="none" font-family="Arial" font-size="24px" font-style="normal" font-weight="normal" text-decoration="none" x="400" y="570">UNREGISTERED</text><text fill="#eeeeee" stroke="none" font-family="Arial" font-size="24px" font-style="normal" font-weight="normal" text-decoration="none" x="400" y="600">UNREGISTERED</text><text fill="#eeeeee" stroke="none" font-family="Arial" font-size="24px" font-style="normal" font-weight="normal" text-decoration="none" x="400" y="630">UNREGISTERED</text><text fill="#eeeeee" stroke="none" font-family="Arial" font-size="24px" font-style="normal" font-weight="normal" text-decoration="none" x="400" y="660">UNREGISTERED</text><text fill="#eeeeee" stroke="none" font-family="Arial" font-size="24px" font-style="normal" font-weight="normal" text-decoration="none" x="400" y="690">UNREGISTERED</text><text fill="#eeeeee" stroke="none" font-family="Arial" font-size="24px" font-style="normal" font-weight="normal" text-decoration="none" x="400" y="720">UNREGISTERED</text><text fill="#eeeeee" stroke="none" font-family="Arial" font-size="24px" font-style="normal" font-weight="normal" text-decoration="none" x="400" y="750">UNREGISTERED</text><text fill="#eeeeee" stroke="none" font-family="Arial" font-size="24px" font-style="normal" font-weight="normal" text-decoration="none" x="400" y="780">UNREGISTERED</text><text fill="#eeeeee" stroke="none" font-family="Arial" font-size="24px" font-style="normal" font-weight="normal" text-decoration="none" x="400" y="810">UNREGISTERED</text><text fill="#eeeeee" stroke="none" font-family="Arial" font-size="24px" font-style="normal" font-weight="normal" text-decoration="none" x="600" y="0">UNREGISTERED</text><text fill="#eeeeee" stroke="none" font-family="Arial" font-size="24px" font-style="normal" font-weight="normal" text-decoration="none" x="600" y="30">UNREGISTERED</text><text fill="#eeeeee" stroke="none" font-family="Arial" font-size="24px" font-style="normal" font-weight="normal" text-decoration="none" x="600" y="60">UNREGISTERED</text><text fill="#eeeeee" stroke="none" font-family="Arial" font-size="24px" font-style="normal" font-weight="normal" text-decoration="none" x="600" y="90">UNREGISTERED</text><text fill="#eeeeee" stroke="none" font-family="Arial" font-size="24px" font-style="normal" font-weight="normal" text-decoration="none" x="600" y="120">UNREGISTERED</text><text fill="#eeeeee" stroke="none" font-family="Arial" font-size="24px" font-style="normal" font-weight="normal" text-decoration="none" x="600" y="150">UNREGISTERED</text><text fill="#eeeeee" stroke="none" font-family="Arial" font-size="24px" font-style="normal" font-weight="normal" text-decoration="none" x="600" y="180">UNREGISTERED</text><text fill="#eeeeee" stroke="none" font-family="Arial" font-size="24px" font-style="normal" font-weight="normal" text-decoration="none" x="600" y="210">UNREGISTERED</text><text fill="#eeeeee" stroke="none" font-family="Arial" font-size="24px" font-style="normal" font-weight="normal" text-decoration="none" x="600" y="240">UNREGISTERED</text><text fill="#eeeeee" stroke="none" font-family="Arial" font-size="24px" font-style="normal" font-weight="normal" text-decoration="none" x="600" y="270">UNREGISTERED</text><text fill="#eeeeee" stroke="none" font-family="Arial" font-size="24px" font-style="normal" font-weight="normal" text-decoration="none" x="600" y="300">UNREGISTERED</text><text fill="#eeeeee" stroke="none" font-family="Arial" font-size="24px" font-style="normal" font-weight="normal" text-decoration="none" x="600" y="330">UNREGISTERED</text><text fill="#eeeeee" stroke="none" font-family="Arial" font-size="24px" font-style="normal" font-weight="normal" text-decoration="none" x="600" y="360">UNREGISTERED</text><text fill="#eeeeee" stroke="none" font-family="Arial" font-size="24px" font-style="normal" font-weight="normal" text-decoration="none" x="600" y="390">UNREGISTERED</text><text fill="#eeeeee" stroke="none" font-family="Arial" font-size="24px" font-style="normal" font-weight="normal" text-decoration="none" x="600" y="420">UNREGISTERED</text><text fill="#eeeeee" stroke="none" font-family="Arial" font-size="24px" font-style="normal" font-weight="normal" text-decoration="none" x="600" y="450">UNREGISTERED</text><text fill="#eeeeee" stroke="none" font-family="Arial" font-size="24px" font-style="normal" font-weight="normal" text-decoration="none" x="600" y="480">UNREGISTERED</text><text fill="#eeeeee" stroke="none" font-family="Arial" font-size="24px" font-style="normal" font-weight="normal" text-decoration="none" x="600" y="510">UNREGISTERED</text><text fill="#eeeeee" stroke="none" font-family="Arial" font-size="24px" font-style="normal" font-weight="normal" text-decoration="none" x="600" y="540">UNREGISTERED</text><text fill="#eeeeee" stroke="none" font-family="Arial" font-size="24px" font-style="normal" font-weight="normal" text-decoration="none" x="600" y="570">UNREGISTERED</text><text fill="#eeeeee" stroke="none" font-family="Arial" font-size="24px" font-style="normal" font-weight="normal" text-decoration="none" x="600" y="600">UNREGISTERED</text><text fill="#eeeeee" stroke="none" font-family="Arial" font-size="24px" font-style="normal" font-weight="normal" text-decoration="none" x="600" y="630">UNREGISTERED</text><text fill="#eeeeee" stroke="none" font-family="Arial" font-size="24px" font-style="normal" font-weight="normal" text-decoration="none" x="600" y="660">UNREGISTERED</text><text fill="#eeeeee" stroke="none" font-family="Arial" font-size="24px" font-style="normal" font-weight="normal" text-decoration="none" x="600" y="690">UNREGISTERED</text><text fill="#eeeeee" stroke="none" font-family="Arial" font-size="24px" font-style="normal" font-weight="normal" text-decoration="none" x="600" y="720">UNREGISTERED</text><text fill="#eeeeee" stroke="none" font-family="Arial" font-size="24px" font-style="normal" font-weight="normal" text-decoration="none" x="600" y="750">UNREGISTERED</text><text fill="#eeeeee" stroke="none" font-family="Arial" font-size="24px" font-style="normal" font-weight="normal" text-decoration="none" x="600" y="780">UNREGISTERED</text><text fill="#eeeeee" stroke="none" font-family="Arial" font-size="24px" font-style="normal" font-weight="normal" text-decoration="none" x="600" y="810">UNREGISTERED</text><g transform="translate(-174,-46) scale(1,1)"><path fill="#C0C0C0" stroke="none" d="M 391 72.5 C 391 67.2532944 395.2532944 63 400.5 63 C 405.7467056 63 410 67.2532944 410 72.5 C 410 77.7467056 405.7467056 82 400.5 82 C 395.2532944 82 391 77.7467056 391 72.5 Z" opacity="0.2"/></g><g transform="translate(-174,-46) scale(1,1)"><path fill="#000000" stroke="none" d="M 384 65.5 C 384 60.2532944 388.2532944 56 393.5 56 C 398.7467056 56 403 60.2532944 403 65.5 C 403 70.7467056 398.7467056 75 393.5 75 C 388.2532944 75 384 70.7467056 384 65.5 Z"/></g><g transform="translate(-174,-46) scale(1,1)"><path fill="#C0C0C0" stroke="none" d="M 361 119 L 437.41357421875 119 Q 447.41357421875 119 447.41357421875 129 L 447.41357421875 149 Q 447.41357421875 159 437.41357421875 159 L 361 159 Q 351 159 351 149 L 351 129 Q 351 119 361 119 Z" opacity="0.2"/></g><g transform="translate(-174,-46) scale(1,1)"><path fill="#ffffff" stroke="none" d="M 354 112 L 430.41357421875 112 Q 440.41357421875 112 440.41357421875 122 L 440.41357421875 142 Q 440.41357421875 152 430.41357421875 152 L 354 152 Q 344 152 344 142 L 344 122 Q 344 112 354 112 Z"/></g><g transform="translate(-174,-46) scale(1,1)"><path fill="none" stroke="#000000" d="M 354 112 L 430.41357421875 112 Q 440.41357421875 112 440.41357421875 122 L 440.41357421875 142 Q 440.41357421875 152 430.41357421875 152 L 354 152 Q 344 152 344 142 L 344 122 Q 344 112 354 112 Z" stroke-miterlimit="10"/></g><g transform="translate(-174,-46) scale(1,1)"><g><path fill="none" stroke="none"/><text fill="#000000" stroke="none" font-family="Arial" font-size="13px" font-style="normal" font-weight="bold" text-decoration="none" x="351.740478515625" y="131.5">Seleziona libri</text></g></g><g transform="translate(-174,-46) scale(1,1)"><path fill="none" stroke="#000000" d="M 393 76 L 392 111" stroke-miterlimit="10"/></g><g transform="translate(-174,-46) scale(1,1)"><path fill="none" stroke="#000000" d="M 388.0824430594122 100.7212477597107 L 392 111 L 396.4980443328709 100.96169351038095" stroke-miterlimit="10"/></g><g transform="translate(-174,-46) scale(1,1)"><path fill="#C0C0C0" stroke="none" d="M 361 191 L 437 191 Q 447 191 447 201 L 447 221 Q 447 231 437 231 L 361 231 Q 351 231 351 221 L 351 201 Q 351 191 361 191 Z" opacity="0.2"/></g><g transform="translate(-174,-46) scale(1,1)"><path fill="#ffffff" stroke="none" d="M 354 184 L 430 184 Q 440 184 440 194 L 440 214 Q 440 224 430 224 L 354 224 Q 344 224 344 214 L 344 194 Q 344 184 354 184 Z"/></g><g transform="translate(-174,-46) scale(1,1)"><path fill="none" stroke="#000000" d="M 354 184 L 430 184 Q 440 184 440 194 L 440 214 Q 440 224 430 224 L 354 224 Q 344 224 344 214 L 344 194 Q 344 184 354 184 Z" stroke-miterlimit="10"/></g><g transform="translate(-174,-46) scale(1,1)"><g><path fill="none" stroke="none"/><text fill="#000000" stroke="none" font-family="Arial" font-size="13px" font-style="normal" font-weight="bold" text-decoration="none" x="366.352294921875" y="203.5">Lista libri</text></g></g><g transform="translate(-174,-46) scale(1,1)"><path fill="none" stroke="#000000" d="M 392 153 L 392 183" stroke-miterlimit="10"/></g><g transform="translate(-174,-46) scale(1,1)"><path fill="none" stroke="#000000" d="M 387.790482243984 172.83732514237585 L 392 183 L 396.209517756016 172.83732514237585" stroke-miterlimit="10"/></g><g transform="translate(-174,-46) scale(1,1)"><path fill="#C0C0C0" stroke="none" d="M 375 307 L 395.5 279 L 415 307 L 395.5 334 L 375 307" opacity="0.2"/></g><g transform="translate(-174,-46) scale(1,1)"><path fill="#ffffff" stroke="none" d="M 368 299.5 L 388 272 L 408 299.5 L 388 327 L 368 299.5"/></g><g transform="translate(-174,-46) scale(1,1)"><path fill="none" stroke="#000000" d="M 368 299.5 L 388 272 L 408 299.5 L 388 327 L 368 299.5 L 368 299.5" stroke-miterlimit="10"/></g><g transform="translate(-174,-46) scale(1,1)"><path fill="#C0C0C0" stroke="none" d="M 521 191 L 572 191 Q 582 191 582 201 L 582 221 Q 582 231 572 231 L 521 231 Q 511 231 511 221 L 511 201 Q 511 191 521 191 Z" opacity="0.2"/></g><g transform="translate(-174,-46) scale(1,1)"><path fill="#ffffff" stroke="none" d="M 514 184 L 565 184 Q 575 184 575 194 L 575 214 Q 575 224 565 224 L 514 224 Q 504 224 504 214 L 504 194 Q 504 184 514 184 Z"/></g><g transform="translate(-174,-46) scale(1,1)"><path fill="none" stroke="#000000" d="M 514 184 L 565 184 Q 575 184 575 194 L 575 214 Q 575 224 565 224 L 514 224 Q 504 224 504 214 L 504 194 Q 504 184 514 184 Z" stroke-miterlimit="10"/></g><g transform="translate(-174,-46) scale(1,1)"><g><path fill="none" stroke="none"/><text fill="#000000" stroke="none" font-family="Arial" font-size="13px" font-style="normal" font-weight="bold" text-decoration="none" x="518.911376953125" y="203.5">id error</text></g></g><g transform="translate(-174,-46) scale(1,1)"><path fill="none" stroke="#000000" d="M 409 299 L 536 296 L 538 225" stroke-miterlimit="10"/></g><g transform="translate(-174,-46) scale(1,1)"><path fill="none" stroke="#000000" d="M 541.9216896160211 235.277176195609 L 538 225 L 533.5059923418332 235.04011430056147" stroke-miterlimit="10"/></g><g transform="translate(-174,-46) scale(1,1)"><path fill="none" stroke="#000000" d="M 503 204 L 441 204" stroke-miterlimit="10"/></g><g transform="translate(-174,-46) scale(1,1)"><path fill="none" stroke="#000000" d="M 451.16267485762415 199.790482243984 L 441 204 L 451.16267485762415 208.209517756016" stroke-miterlimit="10"/></g><g transform="translate(-174,-46) scale(1,1)"><path fill="#C0C0C0" stroke="none" d="M 225 191 L 268 191 Q 278 191 278 201 L 278 221 Q 278 231 268 231 L 225 231 Q 215 231 215 221 L 215 201 Q 215 191 225 191 Z" opacity="0.2"/></g><g transform="translate(-174,-46) scale(1,1)"><path fill="#ffffff" stroke="none" d="M 218 184 L 261 184 Q 271 184 271 194 L 271 214 Q 271 224 261 224 L 218 224 Q 208 224 208 214 L 208 194 Q 208 184 218 184 Z"/></g><g transform="translate(-174,-46) scale(1,1)"><path fill="none" stroke="#000000" d="M 218 184 L 261 184 Q 271 184 271 194 L 271 214 Q 271 224 261 224 L 218 224 Q 208 224 208 214 L 208 194 Q 208 184 218 184 Z" stroke-miterlimit="10"/></g><g transform="translate(-174,-46) scale(1,1)"><g><path fill="none" stroke="none"/><text fill="#000000" stroke="none" font-family="Arial" font-size="13px" font-style="normal" font-weight="bold" text-decoration="none" x="222.516845703125" y="203.5">id null</text></g></g><g transform="translate(-174,-46) scale(1,1)"><path fill="none" stroke="#000000" d="M 367 299 L 240 296 L 239 225" stroke-miterlimit="10"/></g><g transform="translate(-174,-46) scale(1,1)"><path fill="none" stroke="#000000" d="M 243.35222236058272 235.1023839030223 L 239 225 L 234.93402178042288 235.22095010837666" stroke-miterlimit="10"/></g><g transform="translate(-174,-46) scale(1,1)"><path fill="none" stroke="#000000" d="M 272 204 L 343 204" stroke-miterlimit="10"/></g><g transform="translate(-174,-46) scale(1,1)"><path fill="none" stroke="#000000" d="M 332.83732514237585 208.209517756016 L 343 204 L 332.83732514237585 199.790482243984" stroke-miterlimit="10"/></g><g transform="translate(-174,-46) scale(1,1)"><path fill="#C0C0C0" stroke="none" d="M 361 359 L 436.67724609375 359 Q 446.67724609375 359 446.67724609375 369 L 446.67724609375 389 Q 446.67724609375 399 436.67724609375 399 L 361 399 Q 351 399 351 389 L 351 369 Q 351 359 361 359 Z" opacity="0.2"/></g><g transform="translate(-174,-46) scale(1,1)"><path fill="#ffffff" stroke="none" d="M 354 352 L 429.67724609375 352 Q 439.67724609375 352 439.67724609375 362 L 439.67724609375 382 Q 439.67724609375 392 429.67724609375 392 L 354 392 Q 344 392 344 382 L 344 362 Q 344 352 354 352 Z"/></g><g transform="translate(-174,-46) scale(1,1)"><path fill="none" stroke="#000000" d="M 354 352 L 429.67724609375 352 Q 439.67724609375 352 439.67724609375 362 L 439.67724609375 382 Q 439.67724609375 392 429.67724609375 392 L 354 392 Q 344 392 344 382 L 344 362 Q 344 352 354 352 Z" stroke-miterlimit="10"/></g><g transform="translate(-174,-46) scale(1,1)"><g><path fill="none" stroke="none"/><text fill="#000000" stroke="none" font-family="Arial" font-size="13px" font-style="normal" font-weight="bold" text-decoration="none" x="352.819580078125" y="371.5">Acquista libro</text></g></g><g transform="translate(-174,-46) scale(1,1)"><path fill="none" stroke="#000000" d="M 389 328 L 390 351" stroke-miterlimit="10"/></g><g transform="translate(-174,-46) scale(1,1)"><path fill="none" stroke="#000000" d="M 385.3530169751094 341.02976686499363 L 390 351 L 393.7641062508149 340.6640673312673" stroke-miterlimit="10"/></g><g transform="translate(-174,-46) scale(1,1)"><path fill="none" stroke="#000000" d="M 391 225 L 389 271" stroke-miterlimit="10"/></g><g transform="translate(-174,-46) scale(1,1)"><path fill="none" stroke="#000000" d="M 385.23589374918504 260.6640673312673 L 389 271 L 393.6469830248906 261.02976686499363" stroke-miterlimit="10"/></g><g transform="translate(-174,-46) scale(1,1)"><g><path fill="none" stroke="none"/><text fill="#000000" stroke="none" font-family="Arial" font-size="13px" font-style="normal" font-weight="normal" text-decoration="none" x="398.5" y="268.5">check id</text></g></g><g transform="translate(-174,-46) scale(1,1)"><path fill="#C0C0C0" stroke="none" d="M 345 431 L 456.07177734375 431 Q 466.07177734375 431 466.07177734375 441 L 466.07177734375 461 Q 466.07177734375 471 456.07177734375 471 L 345 471 Q 335 471 335 461 L 335 441 Q 335 431 345 431 Z" opacity="0.2"/></g><g transform="translate(-174,-46) scale(1,1)"><path fill="#ffffff" stroke="none" d="M 338 424 L 449.07177734375 424 Q 459.07177734375 424 459.07177734375 434 L 459.07177734375 454 Q 459.07177734375 464 449.07177734375 464 L 338 464 Q 328 464 328 454 L 328 434 Q 328 424 338 424 Z"/></g><g transform="translate(-174,-46) scale(1,1)"><path fill="none" stroke="#000000" d="M 338 424 L 449.07177734375 424 Q 459.07177734375 424 459.07177734375 434 L 459.07177734375 454 Q 459.07177734375 464 449.07177734375 464 L 338 464 Q 328 464 328 454 L 328 434 Q 328 424 338 424 Z" stroke-miterlimit="10"/></g><g transform="translate(-174,-46) scale(1,1)"><g><path fill="none" stroke="none"/><text fill="#000000" stroke="none" font-family="Arial" font-size="13px" font-style="normal" font-weight="bold" text-decoration="none" x="336.197509765625" y="443.5">Effettua Pagamento</text></g></g><g transform="translate(-174,-46) scale(1,1)"><path fill="none" stroke="#000000" d="M 392 393 L 392 423" stroke-miterlimit="10"/></g><g transform="translate(-174,-46) scale(1,1)"><path fill="none" stroke="#000000" d="M 387.790482243984 412.83732514237585 L 392 423 L 396.209517756016 412.83732514237585" stroke-miterlimit="10"/></g><g transform="translate(-174,-46) scale(1,1)"><path fill="#C0C0C0" stroke="none" d="M 386 530 L 397.5 503 L 408 530 L 397.5 556 L 386 530" opacity="0.2"/></g><g transform="translate(-174,-46) scale(1,1)"><path fill="#ffffff" stroke="none" d="M 379 522.5 L 390 496 L 401 522.5 L 390 549 L 379 522.5"/></g><g transform="translate(-174,-46) scale(1,1)"><path fill="none" stroke="#000000" d="M 379 522.5 L 390 496 L 401 522.5 L 390 549 L 379 522.5 L 379 522.5" stroke-miterlimit="10"/></g><g transform="translate(-174,-46) scale(1,1)"><path fill="none" stroke="#000000" d="M 392 465 L 391 495" stroke-miterlimit="10"/></g><g transform="translate(-174,-46) scale(1,1)"><path fill="none" stroke="#000000" d="M 387.13138670550273 484.7027270028595 L 391 495 L 395.54574886967976 484.9832057416654" stroke-miterlimit="10"/></g><g transform="translate(-174,-46) scale(1,1)"><g><path fill="none" stroke="none"/><text fill="#000000" stroke="none" font-family="Arial" font-size="13px" font-style="normal" font-weight="normal" text-decoration="none" x="398.5" y="485.5">check data</text></g></g><g transform="translate(-174,-46) scale(1,1)"><path fill="#C0C0C0" stroke="none" d="M 481 503 L 620.9599609375 503 Q 630.9599609375 503 630.9599609375 513 L 630.9599609375 540 Q 630.9599609375 550 620.9599609375 550 L 481 550 Q 471 550 471 540 L 471 513 Q 471 503 481 503 Z" opacity="0.2"/></g><g transform="translate(-174,-46) scale(1,1)"><path fill="#ffffff" stroke="none" d="M 474 496 L 613.9599609375 496 Q 623.9599609375 496 623.9599609375 506 L 623.9599609375 533 Q 623.9599609375 543 613.9599609375 543 L 474 543 Q 464 543 464 533 L 464 506 Q 464 496 474 496 Z"/></g><g transform="translate(-174,-46) scale(1,1)"><path fill="none" stroke="#000000" d="M 474 496 L 613.9599609375 496 Q 623.9599609375 496 623.9599609375 506 L 623.9599609375 533 Q 623.9599609375 543 613.9599609375 543 L 474 543 Q 464 543 464 533 L 464 506 Q 464 496 474 496 Z" stroke-miterlimit="10"/></g><g transform="translate(-174,-46) scale(1,1)"><g><path fill="none" stroke="none"/><text fill="#000000" stroke="none" font-family="Arial" font-size="13px" font-style="normal" font-weight="bold" text-decoration="none" x="474.974609375" y="515.5">Disponibilita minore di 0</text></g></g><g transform="translate(-174,-46) scale(1,1)"><path fill="none" stroke="#000000" d="M 402 522 L 463 521" stroke-miterlimit="10"/></g><g transform="translate(-174,-46) scale(1,1)"><path fill="none" stroke="#000000" d="M 452.9076896678519 525.3755310717233 L 463 521 L 452.769691234191 516.9576266184071" stroke-miterlimit="10"/></g><g transform="translate(-174,-46) scale(1,1)"><path fill="none" stroke="#000000" d="M 543 495 L 544 376 L 441 373" stroke-miterlimit="10"/></g><g transform="translate(-174,-46) scale(1,1)"><path fill="none" stroke="#000000" d="M 451.2809222555117 369.08814141665067 L 441 373 L 451.0358115750532 377.5036081123949" stroke-miterlimit="10"/></g><g transform="translate(-174,-46) scale(1,1)"><path fill="#C0C0C0" stroke="none" d="M 201 503 L 315.708984375 503 Q 325.708984375 503 325.708984375 513 L 325.708984375 548 Q 325.708984375 558 315.708984375 558 L 201 558 Q 191 558 191 548 L 191 513 Q 191 503 201 503 Z" opacity="0.2"/></g><g transform="translate(-174,-46) scale(1,1)"><path fill="#ffffff" stroke="none" d="M 194 496 L 308.708984375 496 Q 318.708984375 496 318.708984375 506 L 318.708984375 541 Q 318.708984375 551 308.708984375 551 L 194 551 Q 184 551 184 541 L 184 506 Q 184 496 194 496 Z"/></g><g transform="translate(-174,-46) scale(1,1)"><path fill="none" stroke="#000000" d="M 194 496 L 308.708984375 496 Q 318.708984375 496 318.708984375 506 L 318.708984375 541 Q 318.708984375 551 308.708984375 551 L 194 551 Q 184 551 184 541 L 184 506 Q 184 496 194 496 Z" stroke-miterlimit="10"/></g><g transform="translate(-174,-46) scale(1,1)"><g><path fill="none" stroke="none"/><text fill="#000000" stroke="none" font-family="Arial" font-size="13px" font-style="normal" font-weight="bold" text-decoration="none" x="192.457763671875" y="515.5">Credenzali sbagliate</text></g></g><g transform="translate(-174,-46) scale(1,1)"><path fill="none" stroke="#000000" d="M 378 522 L 320 523" stroke-miterlimit="10"/></g><g transform="translate(-174,-46) scale(1,1)"><path fill="none" stroke="#000000" d="M 330.0885975824094 518.6159152813613 L 320 523 L 330.23373179702975 527.0336997293381" stroke-miterlimit="10"/></g><g transform="translate(-174,-46) scale(1,1)"><path fill="none" stroke="#000000" d="M 252 495 L 256 376 L 343 373" stroke-miterlimit="10"/></g><g transform="translate(-174,-46) scale(1,1)"><path fill="none" stroke="#000000" d="M 332.98843133987083 377.55724620396126 L 343 373 L 332.69829221575026 369.1432116044656" stroke-miterlimit="10"/></g><g transform="translate(-174,-46) scale(1,1)"><path fill="#C0C0C0" stroke="none" d="M 345 607 L 438.7236328125 607 Q 448.7236328125 607 448.7236328125 617 L 448.7236328125 652 Q 448.7236328125 662 438.7236328125 662 L 345 662 Q 335 662 335 652 L 335 617 Q 335 607 345 607 Z" opacity="0.2"/></g><g transform="translate(-174,-46) scale(1,1)"><path fill="#ffffff" stroke="none" d="M 338 600 L 431.7236328125 600 Q 441.7236328125 600 441.7236328125 610 L 441.7236328125 645 Q 441.7236328125 655 431.7236328125 655 L 338 655 Q 328 655 328 645 L 328 610 Q 328 600 338 600 Z"/></g><g transform="translate(-174,-46) scale(1,1)"><path fill="none" stroke="#000000" d="M 338 600 L 431.7236328125 600 Q 441.7236328125 600 441.7236328125 610 L 441.7236328125 645 Q 441.7236328125 655 431.7236328125 655 L 338 655 Q 328 655 328 645 L 328 610 Q 328 600 338 600 Z" stroke-miterlimit="10"/></g><g transform="translate(-174,-46) scale(1,1)"><g><path fill="none" stroke="none"/><text fill="#000000" stroke="none" font-family="Arial" font-size="13px" font-style="normal" font-weight="bold" text-decoration="none" x="336.4482421875" y="619.5">Ritira  in negozio</text></g></g><g transform="translate(-174,-46) scale(1,1)"><path fill="none" stroke="#000000" d="M 388 550 L 386 599" stroke-miterlimit="10"/></g><g transform="translate(-174,-46) scale(1,1)"><path fill="none" stroke="#000000" d="M 382.2084423005266 588.6741058396105 L 386 599 L 390.62047362206823 589.0174540568164" stroke-miterlimit="10"/></g><g transform="translate(-174,-46) scale(1,1)"><path fill="#ffffff" stroke="none" d="M 371.0263671875 720 L 394.0263671875 720 L 371.0263671875 743 L 394.0263671875 743 L 371.0263671875 720"/></g><g transform="translate(-174,-46) scale(1,1)"><path fill="none" stroke="#000000" d="M 371.0263671875 720 L 394.0263671875 720 L 371.0263671875 743 L 394.0263671875 743 L 371.0263671875 720 L 371.0263671875 720" stroke-miterlimit="10"/></g><g transform="translate(-174,-46) scale(1,1)"><g><path fill="none" stroke="none"/><text fill="#000000" stroke="none" font-family="Arial" font-size="13px" font-style="normal" font-weight="bold" text-decoration="none" x="315.076171875" y="762.5">effettua ritiro in negozio</text></g></g><g transform="translate(-174,-46) scale(1,1)"><path fill="none" stroke="#000000" d="M 384 656 L 382 719" stroke-miterlimit="10"/></g><g transform="translate(-174,-46) scale(1,1)"><path fill="none" stroke="#000000" d="M 378.11506398936774 708.7088741046816 L 382 719 L 386.52986030903025 708.976010495782" stroke-miterlimit="10"/></g><g transform="translate(-174,-46) scale(1,1)"><g><path fill="none" stroke="none"/><text fill="#000000" stroke="none" font-family="Arial" font-size="13px" font-style="normal" font-weight="normal" text-decoration="none" x="394.5" y="696.5">wait 5 days</text></g></g><g transform="translate(-174,-46) scale(1,1)"><path fill="#C0C0C0" stroke="none" d="M 383 859.5 C 383 852.59644 388.59644 847 395.5 847 C 402.40356 847 408 852.59644 408 859.5 C 408 866.40356 402.40356 872 395.5 872 C 388.59644 872 383 866.40356 383 859.5 Z" opacity="0.2"/></g><g transform="translate(-174,-46) scale(1,1)"><path fill="none" stroke="#000000" d="M 376 852.5 C 376 845.59644 381.59644 840 388.5 840 C 395.40356 840 401 845.59644 401 852.5 C 401 859.40356 395.40356 865 388.5 865 C 381.59644 865 376 859.40356 376 852.5 Z" stroke-miterlimit="10"/></g><g transform="translate(-174,-46) scale(1,1)"><path fill="#000000" stroke="none" d="M 381 852.5 C 381 848.357864 384.357864 845 388.5 845 C 392.642136 845 396 848.357864 396 852.5 C 396 856.642136 392.642136 860 388.5 860 C 384.357864 860 381 856.642136 381 852.5 Z"/></g><g transform="translate(-174,-46) scale(1,1)"><path fill="none" stroke="#000000" d="M 383 769 L 387 839" stroke-miterlimit="10"/></g><g transform="translate(-174,-46) scale(1,1)"><path fill="none" stroke="#000000" d="M 382.21755966870643 829.0940288473256 L 387 839 L 390.6228833874166 828.6137246348279" stroke-miterlimit="10"/></g><g transform="translate(-174,-46) scale(1,1)"><path fill="#ffffff" stroke="none" d="M 720 176 L 845.0634765625 176 L 855.0634765625 186 L 855.0634765625 264 L 720 264 L 720 176"/></g><g transform="translate(-174,-46) scale(1,1)"><path fill="none" stroke="#000000" d="M 720 176 L 845.0634765625 176 L 855.0634765625 186 L 855.0634765625 264 L 720 264 L 720 176 L 720 176" stroke-miterlimit="10"/></g><g transform="translate(-174,-46) scale(1,1)"><path fill="none" stroke="#000000" d="M 845.0634765625 176 L 845.0634765625 186 L 855.0634765625 186 L 845.0634765625 176" stroke-miterlimit="10"/></g><g transform="translate(-174,-46) scale(1,1)"><g><path fill="none" stroke="none"/><text fill="#000000" stroke="none" font-family="Arial" font-size="13px" font-style="normal" font-weight="normal" text-decoration="none" x="725" y="194">this diagram show</text><text fill="#000000" stroke="none" font-family="Arial" font-size="13px" font-style="normal" font-weight="normal" text-decoration="none" x="725" y="207">CompravenditaLibro</text><text fill="#000000" stroke="none" font-family="Arial" font-size="13px" font-style="normal" font-weight="normal" text-decoration="none" x="725" y="220">with cCredito</text><text fill="#000000" stroke="none" font-family="Arial" font-size="13px" font-style="normal" font-weight="normal" text-decoration="none" x="725" y="233">payment and retire in</text><text fill="#000000" stroke="none" font-family="Arial" font-size="13px" font-style="normal" font-weight="normal" text-decoration="none" x="725" y="246">shop</text></g></g></g></svg>