<svg version="1.1" xmlns="http://www.w3.org/2000/svg" xmlns:xlink="http://www.w3.org/1999/xlink" width="782.2099609375" height="1061"><defs/><g><text fill="#eeeeee" stroke="none" font-family="Arial" font-size="24px" font-style="normal" font-weight="normal" text-decoration="none" x="0" y="0">UNREGISTERED</text><text fill="#eeeeee" stroke="none" font-family="Arial" font-size="24px" font-style="normal" font-weight="normal" text-decoration="none" x="0" y="30">UNREGISTERED</text><text fill="#eeeeee" stroke="none" font-family="Arial" font-size="24px" font-style="normal" font-weight="normal" text-decoration="none" x="0" y="60">UNREGISTERED</text><text fill="#eeeeee" stroke="none" font-family="Arial" font-size="24px" font-style="normal" font-weight="normal" text-decoration="none" x="0" y="90">UNREGISTERED</text><text fill="#eeeeee" stroke="none" font-family="Arial" font-size="24px" font-style="normal" font-weight="normal" text-decoration="none" x="0" y="120">UNREGISTERED</text><text fill="#eeeeee" stroke="none" font-family="Arial" font-size="24px" font-style="normal" font-weight="normal" text-decoration="none" x="0" y="150">UNREGISTERED</text><text fill="#eeeeee" stroke="none" font-family="Arial" font-size="24px" font-style="normal" font-weight="normal" text-decoration="none" x="0" y="180">UNREGISTERED</text><text fill="#eeeeee" stroke="none" font-family="Arial" font-size="24px" font-style="normal" font-weight="normal" text-decoration="none" x="0" y="210">UNREGISTERED</text><text fill="#eeeeee" stroke="none" font-family="Arial" font-size="24px" font-style="normal" font-weight="normal" text-decoration="none" x="0" y="240">UNREGISTERED</text><text fill="#eeeeee" stroke="none" font-family="Arial" font-size="24px" font-style="normal" font-weight="normal" text-decoration="none" x="0" y="270">UNREGISTERED</text><text fill="#eeeeee" stroke="none" font-family="Arial" font-size="24px" font-style="normal" font-weight="normal" text-decoration="none" x="0" y="300">UNREGISTERED</text><text fill="#eeeeee" stroke="none" font-family="Arial" font-size="24px" font-style="normal" font-weight="normal" text-decoration="none" x="0" y="330">UNREGISTERED</text><text fill="#eeeeee" stroke="none" font-family="Arial" font-size="24px" font-style="normal" font-weight="normal" text-decoration="none" x="0" y="360">UNREGISTERED</text><text fill="#eeeeee" stroke="none" font-family="Arial" font-size="24px" font-style="normal" font-weight="normal" text-decoration="none" x="0" y="390">UNREGISTERED</text><text fill="#eeeeee" stroke="none" font-family="Arial" font-size="24px" font-style="normal" font-weight="normal" text-decoration="none" x="0" y="420">UNREGISTERED</text><text fill="#eeeeee" stroke="none" font-family="Arial" font-size="24px" font-style="normal" font-weight="normal" text-decoration="none" x="0" y="450">UNREGISTERED</text><text fill="#eeeeee" stroke="none" font-family="Arial" font-size="24px" font-style="normal" font-weight="normal" text-decoration="none" x="0" y="480">UNREGISTERED</text><text fill="#eeeeee" stroke="none" font-family="Arial" font-size="24px" font-style="normal" font-weight="normal" text-decoration="none" x="0" y="510">UNREGISTERED</text><text fill="#eeeeee" stroke="none" font-family="Arial" font-size="24px" font-style="normal" font-weight="normal" text-decoration="none" x="0" y="540">UNREGISTERED</text><text fill="#eeeeee" stroke="none" font-family="Arial" font-size="24px" font-style="normal" font-weight="normal" text-decoration="none" x="0" y="570">UNREGISTERED</text><text fill="#eeeeee" stroke="none" font-family="Arial" font-size="24px" font-style="normal" font-weight="normal" text-decoration="none" x="0" y="600">UNREGISTERED</text><text fill="#eeeeee" stroke="none" font-family="Arial" font-size="24px" font-style="normal" font-weight="normal" text-decoration="none" x="0" y="630">UNREGISTERED</text><text fill="#eeeeee" stroke="none" font-family="Arial" font-size="24px" font-style="normal" font-weight="normal" text-decoration="none" x="0" y="660">UNREGISTERED</text><text fill="#eeeeee" stroke="none" font-family="Arial" font-size="24px" font-style="normal" font-weight="normal" text-decoration="none" x="0" y="690">UNREGISTERED</text><text fill="#eeeeee" stroke="none" font-family="Arial" font-size="24px" font-style="normal" font-weight="normal" text-decoration="none" x="0" y="720">UNREGISTERED</text><text fill="#eeeeee" stroke="none" font-family="Arial" font-size="24px" font-style="normal" font-weight="normal" text-decoration="none" x="0" y="750">UNREGISTERED</text><text fill="#eeeeee" stroke="none" font-family="Arial" font-size="24px" font-style="normal" font-weight="normal" text-decoration="none" x="0" y="780">UNREGISTERED</text><text fill="#eeeeee" stroke="none" font-family="Arial" font-size="24px" font-style="normal" font-weight="normal" text-decoration="none" x="0" y="810">UNREGISTERED</text><text fill="#eeeeee" stroke="none" font-family="Arial" font-size="24px" font-style="normal" font-weight="normal" text-decoration="none" x="0" y="840">UNREGISTERED</text><text fill="#eeeeee" stroke="none" font-family="Arial" font-size="24px" font-style="normal" font-weight="normal" text-decoration="none" x="0" y="870">UNREGISTERED</text><text fill="#eeeeee" stroke="none" font-family="Arial" font-size="24px" font-style="normal" font-weight="normal" text-decoration="none" x="0" y="900">UNREGISTERED</text><text fill="#eeeeee" stroke="none" font-family="Arial" font-size="24px" font-style="normal" font-weight="normal" text-decoration="none" x="0" y="930">UNREGISTERED</text><text fill="#eeeeee" stroke="none" font-family="Arial" font-size="24px" font-style="normal" font-weight="normal" text-decoration="none" x="0" y="960">UNREGISTERED</text><text fill="#eeeeee" stroke="none" font-family="Arial" font-size="24px" font-style="normal" font-weight="normal" text-decoration="none" x="0" y="990">UNREGISTERED</text><text fill="#eeeeee" stroke="none" font-family="Arial" font-size="24px" font-style="normal" font-weight="normal" text-decoration="none" x="0" y="1020">UNREGISTERED</text><text fill="#eeeeee" stroke="none" font-family="Arial" font-size="24px" font-style="normal" font-weight="normal" text-decoration="none" x="0" y="1050">UNREGISTERED</text><text fill="#eeeeee" stroke="none" font-family="Arial" font-size="24px" font-style="normal" font-weight="normal" text-decoration="none" x="200" y="0">UNREGISTERED</text><text fill="#eeeeee" stroke="none" font-family="Arial" font-size="24px" font-style="normal" font-weight="normal" text-decoration="none" x="200" y="30">UNREGISTERED</text><text fill="#eeeeee" stroke="none" font-family="Arial" font-size="24px" font-style="normal" font-weight="normal" text-decoration="none" x="200" y="60">UNREGISTERED</text><text fill="#eeeeee" stroke="none" font-family="Arial" font-size="24px" font-style="normal" font-weight="normal" text-decoration="none" x="200" y="90">UNREGISTERED</text><text fill="#eeeeee" stroke="none" font-family="Arial" font-size="24px" font-style="normal" font-weight="normal" text-decoration="none" x="200" y="120">UNREGISTERED</text><text fill="#eeeeee" stroke="none" font-family="Arial" font-size="24px" font-style="normal" font-weight="normal" text-decoration="none" x="200" y="150">UNREGISTERED</text><text fill="#eeeeee" stroke="none" font-family="Arial" font-size="24px" font-style="normal" font-weight="normal" text-decoration="none" x="200" y="180">UNREGISTERED</text><text fill="#eeeeee" stroke="none" font-family="Arial" font-size="24px" font-style="normal" font-weight="normal" text-decoration="none" x="200" y="210">UNREGISTERED</text><text fill="#eeeeee" stroke="none" font-family="Arial" font-size="24px" font-style="normal" font-weight="normal" text-decoration="none" x="200" y="240">UNREGISTERED</text><text fill="#eeeeee" stroke="none" font-family="Arial" font-size="24px" font-style="normal" font-weight="normal" text-decoration="none" x="200" y="270">UNREGISTERED</text><text fill="#eeeeee" stroke="none" font-family="Arial" font-size="24px" font-style="normal" font-weight="normal" text-decoration="none" x="200" y="300">UNREGISTERED</text><text fill="#eeeeee" stroke="none" font-family="Arial" font-size="24px" font-style="normal" font-weight="normal" text-decoration="none" x="200" y="330">UNREGISTERED</text><text fill="#eeeeee" stroke="none" font-family="Arial" font-size="24px" font-style="normal" font-weight="normal" text-decoration="none" x="200" y="360">UNREGISTERED</text><text fill="#eeeeee" stroke="none" font-family="Arial" font-size="24px" font-style="normal" font-weight="normal" text-decoration="none" x="200" y="390">UNREGISTERED</text><text fill="#eeeeee" stroke="none" font-family="Arial" font-size="24px" font-style="normal" font-weight="normal" text-decoration="none" x="200" y="420">UNREGISTERED</text><text fill="#eeeeee" stroke="none" font-family="Arial" font-size="24px" font-style="normal" font-weight="normal" text-decoration="none" x="200" y="450">UNREGISTERED</text><text fill="#eeeeee" stroke="none" font-family="Arial" font-size="24px" font-style="normal" font-weight="normal" text-decoration="none" x="200" y="480">UNREGISTERED</text><text fill="#eeeeee" stroke="none" font-family="Arial" font-size="24px" font-style="normal" font-weight="normal" text-decoration="none" x="200" y="510">UNREGISTERED</text><text fill="#eeeeee" stroke="none" font-family="Arial" font-size="24px" font-style="normal" font-weight="normal" text-decoration="none" x="200" y="540">UNREGISTERED</text><text fill="#eeeeee" stroke="none" font-family="Arial" font-size="24px" font-style="normal" font-weight="normal" text-decoration="none" x="200" y="570">UNREGISTERED</text><text fill="#eeeeee" stroke="none" font-family="Arial" font-size="24px" font-style="normal" font-weight="normal" text-decoration="none" x="200" y="600">UNREGISTERED</text><text fill="#eeeeee" stroke="none" font-family="Arial" font-size="24px" font-style="normal" font-weight="normal" text-decoration="none" x="200" y="630">UNREGISTERED</text><text fill="#eeeeee" stroke="none" font-family="Arial" font-size="24px" font-style="normal" font-weight="normal" text-decoration="none" x="200" y="660">UNREGISTERED</text><text fill="#eeeeee" stroke="none" font-family="Arial" font-size="24px" font-style="normal" font-weight="normal" text-decoration="none" x="200" y="690">UNREGISTERED</text><text fill="#eeeeee" stroke="none" font-family="Arial" font-size="24px" font-style="normal" font-weight="normal" text-decoration="none" x="200" y="720">UNREGISTERED</text><text fill="#eeeeee" stroke="none" font-family="Arial" font-size="24px" font-style="normal" font-weight="normal" text-decoration="none" x="200" y="750">UNREGISTERED</text><text fill="#eeeeee" stroke="none" font-family="Arial" font-size="24px" font-style="normal" font-weight="normal" text-decoration="none" x="200" y="780">UNREGISTERED</text><text fill="#eeeeee" stroke="none" font-family="Arial" font-size="24px" font-style="normal" font-weight="normal" text-decoration="none" x="200" y="810">UNREGISTERED</text><text fill="#eeeeee" stroke="none" font-family="Arial" font-size="24px" font-style="normal" font-weight="normal" text-decoration="none" x="200" y="840">UNREGISTERED</text><text fill="#eeeeee" stroke="none" font-family="Arial" font-size="24px" font-style="normal" font-weight="normal" text-decoration="none" x="200" y="870">UNREGISTERED</text><text fill="#eeeeee" stroke="none" font-family="Arial" font-size="24px" font-style="normal" font-weight="normal" text-decoration="none" x="200" y="900">UNREGISTERED</text><text fill="#eeeeee" stroke="none" font-family="Arial" font-size="24px" font-style="normal" font-weight="normal" text-decoration="none" x="200" y="930">UNREGISTERED</text><text fill="#eeeeee" stroke="none" font-family="Arial" font-size="24px" font-style="normal" font-weight="normal" text-decoration="none" x="200" y="960">UNREGISTERED</text><text fill="#eeeeee" stroke="none" font-family="Arial" font-size="24px" font-style="normal" font-weight="normal" text-decoration="none" x="200" y="990">UNREGISTERED</text><text fill="#eeeeee" stroke="none" font-family="Arial" font-size="24px" font-style="normal" font-weight="normal" text-decoration="none" x="200" y="1020">UNREGISTERED</text><text fill="#eeeeee" stroke="none" font-family="Arial" font-size="24px" font-style="normal" font-weight="normal" text-decoration="none" x="200" y="1050">UNREGISTERED</text><text fill="#eeeeee" stroke="none" font-family="Arial" font-size="24px" font-style="normal" font-weight="normal" text-decoration="none" x="400" y="0">UNREGISTERED</text><text fill="#eeeeee" stroke="none" font-family="Arial" font-size="24px" font-style="normal" font-weight="normal" text-decoration="none" x="400" y="30">UNREGISTERED</text><text fill="#eeeeee" stroke="none" font-family="Arial" font-size="24px" font-style="normal" font-weight="normal" text-decoration="none" x="400" y="60">UNREGISTERED</text><text fill="#eeeeee" stroke="none" font-family="Arial" font-size="24px" font-style="normal" font-weight="normal" text-decoration="none" x="400" y="90">UNREGISTERED</text><text fill="#eeeeee" stroke="none" font-family="Arial" font-size="24px" font-style="normal" font-weight="normal" text-decoration="none" x="400" y="120">UNREGISTERED</text><text fill="#eeeeee" stroke="none" font-family="Arial" font-size="24px" font-style="normal" font-weight="normal" text-decoration="none" x="400" y="150">UNREGISTERED</text><text fill="#eeeeee" stroke="none" font-family="Arial" font-size="24px" font-style="normal" font-weight="normal" text-decoration="none" x="400" y="180">UNREGISTERED</text><text fill="#eeeeee" stroke="none" font-family="Arial" font-size="24px" font-style="normal" font-weight="normal" text-decoration="none" x="400" y="210">UNREGISTERED</text><text fill="#eeeeee" stroke="none" font-family="Arial" font-size="24px" font-style="normal" font-weight="normal" text-decoration="none" x="400" y="240">UNREGISTERED</text><text fill="#eeeeee" stroke="none" font-family="Arial" font-size="24px" font-style="normal" font-weight="normal" text-decoration="none" x="400" y="270">UNREGISTERED</text><text fill="#eeeeee" stroke="none" font-family="Arial" font-size="24px" font-style="normal" font-weight="normal" text-decoration="none" x="400" y="300">UNREGISTERED</text><text fill="#eeeeee" stroke="none" font-family="Arial" font-size="24px" font-style="normal" font-weight="normal" text-decoration="none" x="400" y="330">UNREGISTERED</text><text fill="#eeeeee" stroke="none" font-family="Arial" font-size="24px" font-style="normal" font-weight="normal" text-decoration="none" x="400" y="360">UNREGISTERED</text><text fill="#eeeeee" stroke="none" font-family="Arial" font-size="24px" font-style="normal" font-weight="normal" text-decoration="none" x="400" y="390">UNREGISTERED</text><text fill="#eeeeee" stroke="none" font-family="Arial" font-size="24px" font-style="normal" font-weight="normal" text-decoration="none" x="400" y="420">UNREGISTERED</text><text fill="#eeeeee" stroke="none" font-family="Arial" font-size="24px" font-style="normal" font-weight="normal" text-decoration="none" x="400" y="450">UNREGISTERED</text><text fill="#eeeeee" stroke="none" font-family="Arial" font-size="24px" font-style="normal" font-weight="normal" text-decoration="none" x="400" y="480">UNREGISTERED</text><text fill="#eeeeee" stroke="none" font-family="Arial" font-size="24px" font-style="normal" font-weight="normal" text-decoration="none" x="400" y="510">UNREGISTERED</text><text fill="#eeeeee" stroke="none" font-family="Arial" font-size="24px" font-style="normal" font-weight="normal" text-decoration="none" x="400" y="540">UNREGISTERED</text><text fill="#eeeeee" stroke="none" font-family="Arial" font-size="24px" font-style="normal" font-weight="normal" text-decoration="none" x="400" y="570">UNREGISTERED</text><text fill="#eeeeee" stroke="none" font-family="Arial" font-size="24px" font-style="normal" font-weight="normal" text-decoration="none" x="400" y="600">UNREGISTERED</text><text fill="#eeeeee" stroke="none" font-family="Arial" font-size="24px" font-style="normal" font-weight="normal" text-decoration="none" x="400" y="630">UNREGISTERED</text><text fill="#eeeeee" stroke="none" font-family="Arial" font-size="24px" font-style="normal" font-weight="normal" text-decoration="none" x="400" y="660">UNREGISTERED</text><text fill="#eeeeee" stroke="none" font-family="Arial" font-size="24px" font-style="normal" font-weight="normal" text-decoration="none" x="400" y="690">UNREGISTERED</text><text fill="#eeeeee" stroke="none" font-family="Arial" font-size="24px" font-style="normal" font-weight="normal" text-decoration="none" x="400" y="720">UNREGISTERED</text><text fill="#eeeeee" stroke="none" font-family="Arial" font-size="24px" font-style="normal" font-weight="normal" text-decoration="none" x="400" y="750">UNREGISTERED</text><text fill="#eeeeee" stroke="none" font-family="Arial" font-size="24px" font-style="normal" font-weight="normal" text-decoration="none" x="400" y="780">UNREGISTERED</text><text fill="#eeeeee" stroke="none" font-family="Arial" font-size="24px" font-style="normal" font-weight="normal" text-decoration="none" x="400" y="810">UNREGISTERED</text><text fill="#eeeeee" stroke="none" font-family="Arial" font-size="24px" font-style="normal" font-weight="normal" text-decoration="none" x="400" y="840">UNREGISTERED</text><text fill="#eeeeee" stroke="none" font-family="Arial" font-size="24px" font-style="normal" font-weight="normal" text-decoration="none" x="400" y="870">UNREGISTERED</text><text fill="#eeeeee" stroke="none" font-family="Arial" font-size="24px" font-style="normal" font-weight="normal" text-decoration="none" x="400" y="900">UNREGISTERED</text><text fill="#eeeeee" stroke="none" font-family="Arial" font-size="24px" font-style="normal" font-weight="normal" text-decoration="none" x="400" y="930">UNREGISTERED</text><text fill="#eeeeee" stroke="none" font-family="Arial" font-size="24px" font-style="normal" font-weight="normal" text-decoration="none" x="400" y="960">UNREGISTERED</text><text fill="#eeeeee" stroke="none" font-family="Arial" font-size="24px" font-style="normal" font-weight="normal" text-decoration="none" x="400" y="990">UNREGISTERED</text><text fill="#eeeeee" stroke="none" font-family="Arial" font-size="24px" font-style="normal" font-weight="normal" text-decoration="none" x="400" y="1020">UNREGISTERED</text><text fill="#eeeeee" stroke="none" font-family="Arial" font-size="24px" font-style="normal" font-weight="normal" text-decoration="none" x="400" y="1050">UNREGISTERED</text><text fill="#eeeeee" stroke="none" font-family="Arial" font-size="24px" font-style="normal" font-weight="normal" text-decoration="none" x="600" y="0">UNREGISTERED</text><text fill="#eeeeee" stroke="none" font-family="Arial" font-size="24px" font-style="normal" font-weight="normal" text-decoration="none" x="600" y="30">UNREGISTERED</text><text fill="#eeeeee" stroke="none" font-family="Arial" font-size="24px" font-style="normal" font-weight="normal" text-decoration="none" x="600" y="60">UNREGISTERED</text><text fill="#eeeeee" stroke="none" font-family="Arial" font-size="24px" font-style="normal" font-weight="normal" text-decoration="none" x="600" y="90">UNREGISTERED</text><text fill="#eeeeee" stroke="none" font-family="Arial" font-size="24px" font-style="normal" font-weight="normal" text-decoration="none" x="600" y="120">UNREGISTERED</text><text fill="#eeeeee" stroke="none" font-family="Arial" font-size="24px" font-style="normal" font-weight="normal" text-decoration="none" x="600" y="150">UNREGISTERED</text><text fill="#eeeeee" stroke="none" font-family="Arial" font-size="24px" font-style="normal" font-weight="normal" text-decoration="none" x="600" y="180">UNREGISTERED</text><text fill="#eeeeee" stroke="none" font-family="Arial" font-size="24px" font-style="normal" font-weight="normal" text-decoration="none" x="600" y="210">UNREGISTERED</text><text fill="#eeeeee" stroke="none" font-family="Arial" font-size="24px" font-style="normal" font-weight="normal" text-decoration="none" x="600" y="240">UNREGISTERED</text><text fill="#eeeeee" stroke="none" font-family="Arial" font-size="24px" font-style="normal" font-weight="normal" text-decoration="none" x="600" y="270">UNREGISTERED</text><text fill="#eeeeee" stroke="none" font-family="Arial" font-size="24px" font-style="normal" font-weight="normal" text-decoration="none" x="600" y="300">UNREGISTERED</text><text fill="#eeeeee" stroke="none" font-family="Arial" font-size="24px" font-style="normal" font-weight="normal" text-decoration="none" x="600" y="330">UNREGISTERED</text><text fill="#eeeeee" stroke="none" font-family="Arial" font-size="24px" font-style="normal" font-weight="normal" text-decoration="none" x="600" y="360">UNREGISTERED</text><text fill="#eeeeee" stroke="none" font-family="Arial" font-size="24px" font-style="normal" font-weight="normal" text-decoration="none" x="600" y="390">UNREGISTERED</text><text fill="#eeeeee" stroke="none" font-family="Arial" font-size="24px" font-style="normal" font-weight="normal" text-decoration="none" x="600" y="420">UNREGISTERED</text><text fill="#eeeeee" stroke="none" font-family="Arial" font-size="24px" font-style="normal" font-weight="normal" text-decoration="none" x="600" y="450">UNREGISTERED</text><text fill="#eeeeee" stroke="none" font-family="Arial" font-size="24px" font-style="normal" font-weight="normal" text-decoration="none" x="600" y="480">UNREGISTERED</text><text fill="#eeeeee" stroke="none" font-family="Arial" font-size="24px" font-style="normal" font-weight="normal" text-decoration="none" x="600" y="510">UNREGISTERED</text><text fill="#eeeeee" stroke="none" font-family="Arial" font-size="24px" font-style="normal" font-weight="normal" text-decoration="none" x="600" y="540">UNREGISTERED</text><text fill="#eeeeee" stroke="none" font-family="Arial" font-size="24px" font-style="normal" font-weight="normal" text-decoration="none" x="600" y="570">UNREGISTERED</text><text fill="#eeeeee" stroke="none" font-family="Arial" font-size="24px" font-style="normal" font-weight="normal" text-decoration="none" x="600" y="600">UNREGISTERED</text><text fill="#eeeeee" stroke="none" font-family="Arial" font-size="24px" font-style="normal" font-weight="normal" text-decoration="none" x="600" y="630">UNREGISTERED</text><text fill="#eeeeee" stroke="none" font-family="Arial" font-size="24px" font-style="normal" font-weight="normal" text-decoration="none" x="600" y="660">UNREGISTERED</text><text fill="#eeeeee" stroke="none" font-family="Arial" font-size="24px" font-style="normal" font-weight="normal" text-decoration="none" x="600" y="690">UNREGISTERED</text><text fill="#eeeeee" stroke="none" font-family="Arial" font-size="24px" font-style="normal" font-weight="normal" text-decoration="none" x="600" y="720">UNREGISTERED</text><text fill="#eeeeee" stroke="none" font-family="Arial" font-size="24px" font-style="normal" font-weight="normal" text-decoration="none" x="600" y="750">UNREGISTERED</text><text fill="#eeeeee" stroke="none" font-family="Arial" font-size="24px" font-style="normal" font-weight="normal" text-decoration="none" x="600" y="780">UNREGISTERED</text><text fill="#eeeeee" stroke="none" font-family="Arial" font-size="24px" font-style="normal" font-weight="normal" text-decoration="none" x="600" y="810">UNREGISTERED</text><text fill="#eeeeee" stroke="none" font-family="Arial" font-size="24px" font-style="normal" font-weight="normal" text-decoration="none" x="600" y="840">UNREGISTERED</text><text fill="#eeeeee" stroke="none" font-family="Arial" font-size="24px" font-style="normal" font-weight="normal" text-decoration="none" x="600" y="870">UNREGISTERED</text><text fill="#eeeeee" stroke="none" font-family="Arial" font-size="24px" font-style="normal" font-weight="normal" text-decoration="none" x="600" y="900">UNREGISTERED</text><text fill="#eeeeee" stroke="none" font-family="Arial" font-size="24px" font-style="normal" font-weight="normal" text-decoration="none" x="600" y="930">UNREGISTERED</text><text fill="#eeeeee" stroke="none" font-family="Arial" font-size="24px" font-style="normal" font-weight="normal" text-decoration="none" x="600" y="960">UNREGISTERED</text><text fill="#eeeeee" stroke="none" font-family="Arial" font-size="24px" font-style="normal" font-weight="normal" text-decoration="none" x="600" y="990">UNREGISTERED</text><text fill="#eeeeee" stroke="none" font-family="Arial" font-size="24px" font-style="normal" font-weight="normal" text-decoration="none" x="600" y="1020">UNREGISTERED</text><text fill="#eeeeee" stroke="none" font-family="Arial" font-size="24px" font-style="normal" font-weight="normal" text-decoration="none" x="600" y="1050">UNREGISTERED</text><g transform="translate(-27,-54) scale(1,1)"><path fill="#C0C0C0" stroke="none" d="M 383 80.5 C 383 75.2532944 387.2532944 71 392.5 71 C 397.7467056 71 402 75.2532944 402 80.5 C 402 85.7467056 397.7467056 90 392.5 90 C 387.2532944 90 383 85.7467056 383 80.5 Z" opacity="0.2"/></g><g transform="translate(-27,-54) scale(1,1)"><path fill="#000000" stroke="none" d="M 376 73.5 C 376 68.2532944 380.2532944 64 385.5 64 C 390.7467056 64 395 68.2532944 395 73.5 C 395 78.7467056 390.7467056 83 385.5 83 C 380.2532944 83 376 78.7467056 376 73.5 Z"/></g><g transform="translate(-27,-54) scale(1,1)"><path fill="#C0C0C0" stroke="none" d="M 369 127 L 426.630859375 127 Q 436.630859375 127 436.630859375 137 L 436.630859375 164 Q 436.630859375 174 426.630859375 174 L 369 174 Q 359 174 359 164 L 359 137 Q 359 127 369 127 Z" opacity="0.2"/></g><g transform="translate(-27,-54) scale(1,1)"><path fill="#ffffff" stroke="none" d="M 362 120 L 419.630859375 120 Q 429.630859375 120 429.630859375 130 L 429.630859375 157 Q 429.630859375 167 419.630859375 167 L 362 167 Q 352 167 352 157 L 352 130 Q 352 120 362 120 Z"/></g><g transform="translate(-27,-54) scale(1,1)"><path fill="none" stroke="#000000" d="M 362 120 L 419.630859375 120 Q 429.630859375 120 429.630859375 130 L 429.630859375 157 Q 429.630859375 167 419.630859375 167 L 362 167 Q 352 167 352 157 L 352 130 Q 352 120 362 120 Z" stroke-miterlimit="10"/></g><g transform="translate(-27,-54) scale(1,1)"><g><path fill="none" stroke="none"/><text fill="#000000" stroke="none" font-family="Arial" font-size="13px" font-style="normal" font-weight="bold" text-decoration="none" x="360.108642578125" y="139.5">scegli libro</text></g></g><g transform="translate(-27,-54) scale(1,1)"><path fill="none" stroke="#000000" d="M 386 84 L 388 119" stroke-miterlimit="10"/></g><g transform="translate(-27,-54) scale(1,1)"><path fill="none" stroke="#000000" d="M 383.21755966870643 109.09402884732563 L 388 119 L 391.6228833874166 108.61372463482792" stroke-miterlimit="10"/></g><g transform="translate(-27,-54) scale(1,1)"><path fill="#C0C0C0" stroke="none" d="M 369 255 L 420 255 Q 430 255 430 265 L 430 284 Q 430 294 420 294 L 369 294 Q 359 294 359 284 L 359 265 Q 359 255 369 255 Z" opacity="0.2"/></g><g transform="translate(-27,-54) scale(1,1)"><path fill="#ffffff" stroke="none" d="M 362 248 L 413 248 Q 423 248 423 258 L 423 277 Q 423 287 413 287 L 362 287 Q 352 287 352 277 L 352 258 Q 352 248 362 248 Z"/></g><g transform="translate(-27,-54) scale(1,1)"><path fill="none" stroke="#000000" d="M 362 248 L 413 248 Q 423 248 423 258 L 423 277 Q 423 287 413 287 L 362 287 Q 352 287 352 277 L 352 258 Q 352 248 362 248 Z" stroke-miterlimit="10"/></g><g transform="translate(-27,-54) scale(1,1)"><g><path fill="none" stroke="none"/><text fill="#000000" stroke="none" font-family="Arial" font-size="13px" font-style="normal" font-weight="bold" text-decoration="none" x="364.016845703125" y="267.5">scegli id</text></g></g><g transform="translate(-27,-54) scale(1,1)"><path fill="none" stroke="#000000" d="M 387 248 L 387 227 L 452 227 L 452 267 L 423 267" stroke-miterlimit="10"/></g><g transform="translate(-27,-54) scale(1,1)"><path fill="none" stroke="#000000" d="M 433.16267485762415 262.790482243984 L 423 267 L 433.16267485762415 271.209517756016" stroke-miterlimit="10"/></g><g transform="translate(-27,-54) scale(1,1)"><g><path fill="none" stroke="none"/><text fill="#000000" stroke="none" font-family="Arial" font-size="13px" font-style="normal" font-weight="normal" text-decoration="none" x="452.5" y="252.5">id error || nulll</text></g></g><g transform="translate(-27,-54) scale(1,1)"><path fill="#C0C0C0" stroke="none" d="M 361 399 L 436.67724609375 399 Q 446.67724609375 399 446.67724609375 409 L 446.67724609375 428 Q 446.67724609375 438 436.67724609375 438 L 361 438 Q 351 438 351 428 L 351 409 Q 351 399 361 399 Z" opacity="0.2"/></g><g transform="translate(-27,-54) scale(1,1)"><path fill="#ffffff" stroke="none" d="M 354 392 L 429.67724609375 392 Q 439.67724609375 392 439.67724609375 402 L 439.67724609375 421 Q 439.67724609375 431 429.67724609375 431 L 354 431 Q 344 431 344 421 L 344 402 Q 344 392 354 392 Z"/></g><g transform="translate(-27,-54) scale(1,1)"><path fill="none" stroke="#000000" d="M 354 392 L 429.67724609375 392 Q 439.67724609375 392 439.67724609375 402 L 439.67724609375 421 Q 439.67724609375 431 429.67724609375 431 L 354 431 Q 344 431 344 421 L 344 402 Q 344 392 354 392 Z" stroke-miterlimit="10"/></g><g transform="translate(-27,-54) scale(1,1)"><g><path fill="none" stroke="none"/><text fill="#000000" stroke="none" font-family="Arial" font-size="13px" font-style="normal" font-weight="bold" text-decoration="none" x="352.819580078125" y="411.5">Acquista libro</text></g></g><g transform="translate(-27,-54) scale(1,1)"><path fill="none" stroke="#000000" d="M 388 288 L 390 391" stroke-miterlimit="10"/></g><g transform="translate(-27,-54) scale(1,1)"><path fill="none" stroke="#000000" d="M 385.5939792927427 380.9209632639215 L 390 391 L 394.01142810375944 380.7575176559406" stroke-miterlimit="10"/></g><g transform="translate(-27,-54) scale(1,1)"><g><path fill="none" stroke="none"/><text fill="#000000" stroke="none" font-family="Arial" font-size="13px" font-style="normal" font-weight="normal" text-decoration="none" x="391.950439453125" y="340.5">id correct</text></g></g><g transform="translate(-27,-54) scale(1,1)"><path fill="none" stroke="#000000" d="M 391 392 L 391 371 L 468 371 L 468 411 L 440 411" stroke-miterlimit="10"/></g><g transform="translate(-27,-54) scale(1,1)"><path fill="none" stroke="#000000" d="M 450.16267485762415 406.790482243984 L 440 411 L 450.16267485762415 415.209517756016" stroke-miterlimit="10"/></g><g transform="translate(-27,-54) scale(1,1)"><g><path fill="none" stroke="none"/><text fill="#000000" stroke="none" font-family="Arial" font-size="13px" font-style="normal" font-weight="normal" text-decoration="none" x="476.5" y="396.5">quantita sbagliata || errore dati</text></g></g><g transform="translate(-27,-54) scale(1,1)"><path fill="none" stroke="#000000" d="M 389 168 L 387 247" stroke-miterlimit="10"/></g><g transform="translate(-27,-54) scale(1,1)"><path fill="none" stroke="#000000" d="M 383.0490310822491 236.73404438880792 L 387 247 L 391.4653699140351 236.94711625796705" stroke-miterlimit="10"/></g><g transform="translate(-27,-54) scale(1,1)"><path fill="#C0C0C0" stroke="none" d="M 329 479 L 479.8017578125 479 Q 489.8017578125 479 489.8017578125 489 L 489.8017578125 508 Q 489.8017578125 518 479.8017578125 518 L 329 518 Q 319 518 319 508 L 319 489 Q 319 479 329 479 Z" opacity="0.2"/></g><g transform="translate(-27,-54) scale(1,1)"><path fill="#ffffff" stroke="none" d="M 322 472 L 472.8017578125 472 Q 482.8017578125 472 482.8017578125 482 L 482.8017578125 501 Q 482.8017578125 511 472.8017578125 511 L 322 511 Q 312 511 312 501 L 312 482 Q 312 472 322 472 Z"/></g><g transform="translate(-27,-54) scale(1,1)"><path fill="none" stroke="#000000" d="M 322 472 L 472.8017578125 472 Q 482.8017578125 472 482.8017578125 482 L 482.8017578125 501 Q 482.8017578125 511 472.8017578125 511 L 322 511 Q 312 511 312 501 L 312 482 Q 312 472 322 472 Z" stroke-miterlimit="10"/></g><g transform="translate(-27,-54) scale(1,1)"><g><path fill="none" stroke="none"/><text fill="#000000" stroke="none" font-family="Arial" font-size="13px" font-style="normal" font-weight="bold" text-decoration="none" x="321.879638671875" y="491.5">Scegli metodo pagamento</text></g></g><g transform="translate(-27,-54) scale(1,1)"><path fill="none" stroke="#000000" d="M 393 432 L 396 471" stroke-miterlimit="10"/></g><g transform="translate(-27,-54) scale(1,1)"><path fill="none" stroke="#000000" d="M 391.02343985868197 461.19011472239123 L 396 471 L 399.41767697955055 460.5444041746321" stroke-miterlimit="10"/></g><g transform="translate(-27,-54) scale(1,1)"><g><path fill="none" stroke="none"/><text fill="#000000" stroke="none" font-family="Arial" font-size="13px" font-style="normal" font-weight="normal" text-decoration="none" x="375.950439453125" y="455.5">dati corretti</text></g></g><g transform="translate(-27,-54) scale(1,1)"><path fill="#C0C0C0" stroke="none" d="M 391 600.5 L 402.5 591 L 413 600.5 L 402.5 609 L 391 600.5" opacity="0.2"/></g><g transform="translate(-27,-54) scale(1,1)"><path fill="#ffffff" stroke="none" d="M 384 593 L 395 584 L 406 593 L 395 602 L 384 593"/></g><g transform="translate(-27,-54) scale(1,1)"><path fill="none" stroke="#000000" d="M 384 593 L 395 584 L 406 593 L 395 602 L 384 593 L 384 593" stroke-miterlimit="10"/></g><g transform="translate(-27,-54) scale(1,1)"><path fill="none" stroke="#000000" d="M 397 512 L 395 583" stroke-miterlimit="10"/></g><g transform="translate(-27,-54) scale(1,1)"><path fill="none" stroke="#000000" d="M 391.07831038397893 572.7228238043909 L 395 583 L 399.4940076581667 572.9598856994386" stroke-miterlimit="10"/></g><g transform="translate(-27,-54) scale(1,1)"><g><path fill="none" stroke="none"/><text fill="#000000" stroke="none" font-family="Arial" font-size="13px" font-style="normal" font-weight="normal" text-decoration="none" x="409.114990234375" y="556.5">chose payment method</text></g></g><g transform="translate(-27,-54) scale(1,1)"><path fill="#C0C0C0" stroke="none" d="M 281 639 L 374.74267578125 639 Q 384.74267578125 639 384.74267578125 649 L 384.74267578125 668 Q 384.74267578125 678 374.74267578125 678 L 281 678 Q 271 678 271 668 L 271 649 Q 271 639 281 639 Z" opacity="0.2"/></g><g transform="translate(-27,-54) scale(1,1)"><path fill="#ffffff" stroke="none" d="M 274 632 L 367.74267578125 632 Q 377.74267578125 632 377.74267578125 642 L 377.74267578125 661 Q 377.74267578125 671 367.74267578125 671 L 274 671 Q 264 671 264 661 L 264 642 Q 264 632 274 632 Z"/></g><g transform="translate(-27,-54) scale(1,1)"><path fill="none" stroke="#000000" d="M 274 632 L 367.74267578125 632 Q 377.74267578125 632 377.74267578125 642 L 377.74267578125 661 Q 377.74267578125 671 367.74267578125 671 L 274 671 Q 264 671 264 661 L 264 642 Q 264 632 274 632 Z" stroke-miterlimit="10"/></g><g transform="translate(-27,-54) scale(1,1)"><g><path fill="none" stroke="none"/><text fill="#000000" stroke="none" font-family="Arial" font-size="13px" font-style="normal" font-weight="bold" text-decoration="none" x="271.365966796875" y="651.5">pagamento Cash</text></g></g><g transform="translate(-27,-54) scale(1,1)"><path fill="#C0C0C0" stroke="none" d="M 481 639 L 558.1435546875 639 Q 568.1435546875 639 568.1435546875 649 L 568.1435546875 676 Q 568.1435546875 686 558.1435546875 686 L 481 686 Q 471 686 471 676 L 471 649 Q 471 639 481 639 Z" opacity="0.2"/></g><g transform="translate(-27,-54) scale(1,1)"><path fill="#ffffff" stroke="none" d="M 474 632 L 551.1435546875 632 Q 561.1435546875 632 561.1435546875 642 L 561.1435546875 669 Q 561.1435546875 679 551.1435546875 679 L 474 679 Q 464 679 464 669 L 464 642 Q 464 632 474 632 Z"/></g><g transform="translate(-27,-54) scale(1,1)"><path fill="none" stroke="#000000" d="M 474 632 L 551.1435546875 632 Q 561.1435546875 632 561.1435546875 642 L 561.1435546875 669 Q 561.1435546875 679 551.1435546875 679 L 474 679 Q 464 679 464 669 L 464 642 Q 464 632 474 632 Z" stroke-miterlimit="10"/></g><g transform="translate(-27,-54) scale(1,1)"><g><path fill="none" stroke="none"/><text fill="#000000" stroke="none" font-family="Arial" font-size="13px" font-style="normal" font-weight="bold" text-decoration="none" x="471.02001953125" y="651.5">Pagamento cc</text></g></g><g transform="translate(-27,-54) scale(1,1)"><path fill="#C0C0C0" stroke="none" d="M 391 774 C 391 770.1340064 394.1340064 767 398 767 C 401.8659936 767 405 770.1340064 405 774 C 405 777.8659936 401.8659936 781 398 781 C 394.1340064 781 391 777.8659936 391 774 Z" opacity="0.2"/></g><g transform="translate(-27,-54) scale(1,1)"><path fill="#000000" stroke="none" d="M 384 767 C 384 763.1340064 387.1340064 760 391 760 C 394.8659936 760 398 763.1340064 398 767 C 398 770.8659936 394.8659936 774 391 774 C 387.1340064 774 384 770.8659936 384 767 Z"/></g><g transform="translate(-27,-54) scale(1,1)"><path fill="none" stroke="#000000" d="M 384 767 C 384 763.1340064 387.1340064 760 391 760 C 394.8659936 760 398 763.1340064 398 767 C 398 770.8659936 394.8659936 774 391 774 C 387.1340064 774 384 770.8659936 384 767 Z" stroke-miterlimit="10"/></g><g transform="translate(-27,-54) scale(1,1)"><path fill="none" stroke="#000000" d="M 333 672 L 386 759" stroke-miterlimit="10"/></g><g transform="translate(-27,-54) scale(1,1)"><path fill="none" stroke="#000000" d="M 377.1178180081353 752.5110214160167 L 386 759 L 384.30774964152835 748.1309481221106" stroke-miterlimit="10"/></g><g transform="translate(-27,-54) scale(1,1)"><path fill="none" stroke="#000000" d="M 485 680 L 399 760" stroke-miterlimit="10"/></g><g transform="translate(-27,-54) scale(1,1)"><path fill="none" stroke="#000000" d="M 403.57385661546516 749.9960090133404 L 399 760 L 409.30809489456647 756.1603151633743" stroke-miterlimit="10"/></g><g transform="translate(-27,-54) scale(1,1)"><path fill="#C0C0C0" stroke="none" d="M 345 815 L 449.60986328125 815 Q 459.60986328125 815 459.60986328125 825 L 459.60986328125 844 Q 459.60986328125 854 449.60986328125 854 L 345 854 Q 335 854 335 844 L 335 825 Q 335 815 345 815 Z" opacity="0.2"/></g><g transform="translate(-27,-54) scale(1,1)"><path fill="#ffffff" stroke="none" d="M 338 808 L 442.60986328125 808 Q 452.60986328125 808 452.60986328125 818 L 452.60986328125 837 Q 452.60986328125 847 442.60986328125 847 L 338 847 Q 328 847 328 837 L 328 818 Q 328 808 338 808 Z"/></g><g transform="translate(-27,-54) scale(1,1)"><path fill="none" stroke="#000000" d="M 338 808 L 442.60986328125 808 Q 452.60986328125 808 452.60986328125 818 L 452.60986328125 837 Q 452.60986328125 847 442.60986328125 847 L 338 847 Q 328 847 328 837 L 328 818 Q 328 808 338 808 Z" stroke-miterlimit="10"/></g><g transform="translate(-27,-54) scale(1,1)"><g><path fill="none" stroke="none"/><text fill="#000000" stroke="none" font-family="Arial" font-size="13px" font-style="normal" font-weight="bold" text-decoration="none" x="337.562255859375" y="827.5">scegli dove ritirare</text></g></g><g transform="translate(-27,-54) scale(1,1)"><path fill="none" stroke="#000000" d="M 512 632 L 512 611 L 590 611 L 590 655 L 561 655" stroke-miterlimit="10"/></g><g transform="translate(-27,-54) scale(1,1)"><path fill="none" stroke="#000000" d="M 571.1626748576241 650.790482243984 L 561 655 L 571.1626748576241 659.209517756016" stroke-miterlimit="10"/></g><g transform="translate(-27,-54) scale(1,1)"><g><path fill="none" stroke="none"/><text fill="#000000" stroke="none" font-family="Arial" font-size="13px" font-style="normal" font-weight="normal" text-decoration="none" x="606.5" y="636.5">data error || quantita not avalaible</text></g></g><g transform="translate(-27,-54) scale(1,1)"><path fill="none" stroke="#000000" d="M 320 632 L 320 611 L 248 611 L 248 651 L 264 651" stroke-miterlimit="10"/></g><g transform="translate(-27,-54) scale(1,1)"><path fill="none" stroke="#000000" d="M 253.83732514237585 655.209517756016 L 264 651 L 253.83732514237585 646.790482243984" stroke-miterlimit="10"/></g><g transform="translate(-27,-54) scale(1,1)"><g><path fill="none" stroke="none"/><text fill="#000000" stroke="none" font-family="Arial" font-size="13px" font-style="normal" font-weight="normal" text-decoration="none" x="36.5" y="627.5">data error|| quantita not avalaible</text></g></g><g transform="translate(-27,-54) scale(1,1)"><path fill="none" stroke="#000000" d="M 391 775 L 390 807" stroke-miterlimit="10"/></g><g transform="translate(-27,-54) scale(1,1)"><path fill="none" stroke="#000000" d="M 386.1099648010322 796.7108005097193 L 390 807 L 394.5248924643141 796.9737669991969" stroke-miterlimit="10"/></g><g transform="translate(-27,-54) scale(1,1)"><path fill="#C0C0C0" stroke="none" d="M 390 923.5 L 401.5 914 L 412 923.5 L 401.5 932 L 390 923.5" opacity="0.2"/></g><g transform="translate(-27,-54) scale(1,1)"><path fill="#ffffff" stroke="none" d="M 383 916 L 394 907 L 405 916 L 394 925 L 383 916"/></g><g transform="translate(-27,-54) scale(1,1)"><path fill="none" stroke="#000000" d="M 383 916 L 394 907 L 405 916 L 394 925 L 383 916 L 383 916" stroke-miterlimit="10"/></g><g transform="translate(-27,-54) scale(1,1)"><path fill="none" stroke="#000000" d="M 391 848 L 394 906" stroke-miterlimit="10"/></g><g transform="translate(-27,-54) scale(1,1)"><path fill="none" stroke="#000000" d="M 389.27114817562676 896.0683354656371 L 394 906 L 397.6789441484773 895.6334494670414" stroke-miterlimit="10"/></g><g transform="translate(-27,-54) scale(1,1)"><g><path fill="none" stroke="none"/><text fill="#000000" stroke="none" font-family="Arial" font-size="13px" font-style="normal" font-weight="normal" text-decoration="none" x="398.5" y="884.5">choose withdrawal method</text></g></g><g transform="translate(-27,-54) scale(1,1)"><path fill="none" stroke="#000000" d="M 383 602 L 346 631" stroke-miterlimit="10"/></g><g transform="translate(-27,-54) scale(1,1)"><path fill="none" stroke="#000000" d="M 351.4018190457391 621.4177063811898 L 346 631 L 356.595367675166 628.0439580808035" stroke-miterlimit="10"/></g><g transform="translate(-27,-54) scale(1,1)"><path fill="none" stroke="#000000" d="M 407 599 L 467 631" stroke-miterlimit="10"/></g><g transform="translate(-27,-54) scale(1,1)"><path fill="none" stroke="#000000" d="M 456.0519844169123 629.931845145838 L 467 631 L 460.01388348139795 622.5032843999275" stroke-miterlimit="10"/></g><g transform="translate(-27,-54) scale(1,1)"><path fill="#C0C0C0" stroke="none" d="M 297 951 L 336.552734375 951 Q 346.552734375 951 346.552734375 961 L 346.552734375 980 Q 346.552734375 990 336.552734375 990 L 297 990 Q 287 990 287 980 L 287 961 Q 287 951 297 951 Z" opacity="0.2"/></g><g transform="translate(-27,-54) scale(1,1)"><path fill="#ffffff" stroke="none" d="M 290 944 L 329.552734375 944 Q 339.552734375 944 339.552734375 954 L 339.552734375 973 Q 339.552734375 983 329.552734375 983 L 290 983 Q 280 983 280 973 L 280 954 Q 280 944 290 944 Z"/></g><g transform="translate(-27,-54) scale(1,1)"><path fill="none" stroke="#000000" d="M 290 944 L 329.552734375 944 Q 339.552734375 944 339.552734375 954 L 339.552734375 973 Q 339.552734375 983 329.552734375 983 L 290 983 Q 280 983 280 973 L 280 954 Q 280 944 290 944 Z" stroke-miterlimit="10"/></g><g transform="translate(-27,-54) scale(1,1)"><g><path fill="none" stroke="none"/><text fill="#000000" stroke="none" font-family="Arial" font-size="13px" font-style="normal" font-weight="bold" text-decoration="none" x="285.92822265625" y="963.5">Negozio</text></g></g><g transform="translate(-27,-54) scale(1,1)"><path fill="#C0C0C0" stroke="none" d="M 465 951 L 516.10546875 951 Q 526.10546875 951 526.10546875 961 L 526.10546875 980 Q 526.10546875 990 516.10546875 990 L 465 990 Q 455 990 455 980 L 455 961 Q 455 951 465 951 Z" opacity="0.2"/></g><g transform="translate(-27,-54) scale(1,1)"><path fill="#ffffff" stroke="none" d="M 458 944 L 509.10546875 944 Q 519.10546875 944 519.10546875 954 L 519.10546875 973 Q 519.10546875 983 509.10546875 983 L 458 983 Q 448 983 448 973 L 448 954 Q 448 944 458 944 Z"/></g><g transform="translate(-27,-54) scale(1,1)"><path fill="none" stroke="#000000" d="M 458 944 L 509.10546875 944 Q 519.10546875 944 519.10546875 954 L 519.10546875 973 Q 519.10546875 983 509.10546875 983 L 458 983 Q 448 983 448 973 L 448 954 Q 448 944 458 944 Z" stroke-miterlimit="10"/></g><g transform="translate(-27,-54) scale(1,1)"><g><path fill="none" stroke="none"/><text fill="#000000" stroke="none" font-family="Arial" font-size="13px" font-style="normal" font-weight="bold" text-decoration="none" x="454.6455078125" y="963.5">Download</text></g></g><g transform="translate(-27,-54) scale(1,1)"><path fill="none" stroke="#000000" d="M 382 923 L 341 946" stroke-miterlimit="10"/></g><g transform="translate(-27,-54) scale(1,1)"><path fill="none" stroke="#000000" d="M 347.8037954927837 937.35659980723 L 341 946 L 351.9228168195706 944.699203041937" stroke-miterlimit="10"/></g><g transform="translate(-27,-54) scale(1,1)"><path fill="none" stroke="#000000" d="M 406 922 L 447 944" stroke-miterlimit="10"/></g><g transform="translate(-27,-54) scale(1,1)"><path fill="none" stroke="#000000" d="M 436.05472017443725 942.9041671933505 L 447 944 L 440.0353892219888 935.4856476047318" stroke-miterlimit="10"/></g><g transform="translate(-27,-54) scale(1,1)"><path fill="#C0C0C0" stroke="none" d="M 495 1099.5 C 495 1092.59644 500.59644 1087 507.5 1087 C 514.40356 1087 520 1092.59644 520 1099.5 C 520 1106.40356 514.40356 1112 507.5 1112 C 500.59644 1112 495 1106.40356 495 1099.5 Z" opacity="0.2"/></g><g transform="translate(-27,-54) scale(1,1)"><path fill="none" stroke="#000000" d="M 488 1092.5 C 488 1085.59644 493.59644 1080 500.5 1080 C 507.40356 1080 513 1085.59644 513 1092.5 C 513 1099.40356 507.40356 1105 500.5 1105 C 493.59644 1105 488 1099.40356 488 1092.5 Z" stroke-miterlimit="10"/></g><g transform="translate(-27,-54) scale(1,1)"><path fill="#000000" stroke="none" d="M 493 1092.5 C 493 1088.357864 496.357864 1085 500.5 1085 C 504.642136 1085 508 1088.357864 508 1092.5 C 508 1096.642136 504.642136 1100 500.5 1100 C 496.357864 1100 493 1096.642136 493 1092.5 Z"/></g><g transform="translate(-27,-54) scale(1,1)"><path fill="none" stroke="#000000" d="M 486 984 L 498 1079" stroke-miterlimit="10"/></g><g transform="translate(-27,-54) scale(1,1)"><path fill="none" stroke="#000000" d="M 492.5500824502425 1069.444980444769 L 498 1079 L 500.90274546553275 1068.389907221785" stroke-miterlimit="10"/></g><g transform="translate(-27,-54) scale(1,1)"><g><path fill="none" stroke="none"/><text fill="#000000" stroke="none" font-family="Arial" font-size="13px" font-style="normal" font-weight="normal" text-decoration="none" x="495.5" y="1036.5">download successfully</text></g></g><g transform="translate(-27,-54) scale(1,1)"><path fill="#C0C0C0" stroke="none" d="M 281 1031 L 361.0126953125 1031 Q 371.0126953125 1031 371.0126953125 1041 L 371.0126953125 1060 Q 371.0126953125 1070 361.0126953125 1070 L 281 1070 Q 271 1070 271 1060 L 271 1041 Q 271 1031 281 1031 Z" opacity="0.2"/></g><g transform="translate(-27,-54) scale(1,1)"><path fill="#ffffff" stroke="none" d="M 274 1024 L 354.0126953125 1024 Q 364.0126953125 1024 364.0126953125 1034 L 364.0126953125 1053 Q 364.0126953125 1063 354.0126953125 1063 L 274 1063 Q 264 1063 264 1053 L 264 1034 Q 264 1024 274 1024 Z"/></g><g transform="translate(-27,-54) scale(1,1)"><path fill="none" stroke="#000000" d="M 274 1024 L 354.0126953125 1024 Q 364.0126953125 1024 364.0126953125 1034 L 364.0126953125 1053 Q 364.0126953125 1063 354.0126953125 1063 L 274 1063 Q 264 1063 264 1053 L 264 1034 Q 264 1024 274 1024 Z" stroke-miterlimit="10"/></g><g transform="translate(-27,-54) scale(1,1)"><g><path fill="none" stroke="none"/><text fill="#000000" stroke="none" font-family="Arial" font-size="13px" font-style="normal" font-weight="bold" text-decoration="none" x="271.727783203125" y="1043.5">Scegli negozio</text></g></g><g transform="translate(-27,-54) scale(1,1)"><path fill="none" stroke="#000000" d="M 310 984 L 313 1023" stroke-miterlimit="10"/></g><g transform="translate(-27,-54) scale(1,1)"><path fill="none" stroke="#000000" d="M 308.02343985868197 1013.1901147223913 L 313 1023 L 316.41767697955055 1012.5444041746322" stroke-miterlimit="10"/></g><g transform="translate(-27,-54) scale(1,1)"><path fill="none" stroke="#000000" d="M 314 1024 L 314 1003 L 216 1003 L 216 1043 L 264 1043" stroke-miterlimit="10"/></g><g transform="translate(-27,-54) scale(1,1)"><path fill="none" stroke="#000000" d="M 253.83732514237585 1047.2095177560159 L 264 1043 L 253.83732514237585 1038.7904822439841" stroke-miterlimit="10"/></g><g transform="translate(-27,-54) scale(1,1)"><g><path fill="none" stroke="none"/><text fill="#000000" stroke="none" font-family="Arial" font-size="13px" font-style="normal" font-weight="normal" text-decoration="none" x="94.5" y="1027.5">! avalaible &amp;&amp; !open</text></g></g><g transform="translate(-27,-54) scale(1,1)"><path fill="none" stroke="#000000" d="M 365 1056 L 487 1089" stroke-miterlimit="10"/></g><g transform="translate(-27,-54) scale(1,1)"><path fill="none" stroke="#000000" d="M 476.09073324367483 1090.4099286646276 L 487 1089 L 478.289013379082 1082.282953618577" stroke-miterlimit="10"/></g><g transform="translate(-27,-54) scale(1,1)"><g><path fill="none" stroke="none"/><text fill="#000000" stroke="none" font-family="Arial" font-size="13px" font-style="normal" font-weight="normal" text-decoration="none" x="318.5" y="1092.5">shopped successfylly</text></g></g></g></svg>